<svg width="982" height="1512" viewBox="0 0 982 1512" fill="none" xmlns="http://www.w3.org/2000/svg">
<g clip-path="url(#clip0_2_9)">
<rect width="1512" height="982" transform="translate(982 3.05176e-05) rotate(90)" fill="#FCC4CF"/>
<circle cx="17.7742" cy="35.7689" r="17.7742" fill="white"/>
<circle cx="103.323" cy="35.7689" r="17.7742" fill="white"/>
<circle cx="188.871" cy="35.7689" r="17.7742" fill="white"/>
<circle cx="274.42" cy="35.7689" r="17.7742" fill="white"/>
<circle cx="359.968" cy="35.7689" r="17.7742" fill="white"/>
<circle cx="445.516" cy="35.7689" r="17.7742" fill="white"/>
<circle cx="530.774" cy="35.7689" r="17.7742" fill="white"/>
<circle cx="615.774" cy="35.7689" r="17.7742" fill="white"/>
<circle cx="701.323" cy="35.7689" r="17.7742" fill="white"/>
<circle cx="786.871" cy="35.7689" r="17.7742" fill="white"/>
<circle cx="872.42" cy="35.7689" r="17.7742" fill="white"/>
<circle cx="957.968" cy="35.7689" r="17.7742" fill="white"/>
<circle cx="59.3226" cy="110.769" r="17.7742" fill="white"/>
<circle cx="144.871" cy="110.769" r="17.7742" fill="white"/>
<circle cx="230.42" cy="110.769" r="17.7742" fill="white"/>
<circle cx="315.968" cy="110.769" r="17.7742" fill="white"/>
<circle cx="401.516" cy="110.769" r="17.7742" fill="white"/>
<circle cx="486.774" cy="110.769" r="17.7742" fill="white"/>
<circle cx="571.774" cy="110.769" r="17.7742" fill="white"/>
<circle cx="657.323" cy="110.769" r="17.7742" fill="white"/>
<circle cx="742.871" cy="110.769" r="17.7742" fill="white"/>
<circle cx="828.42" cy="110.769" r="17.7742" fill="white"/>
<circle cx="913.968" cy="110.769" r="17.7742" fill="white"/>
<circle cx="999.226" cy="110.769" r="17.7742" transform="rotate(-15 999.226 110.769)" fill="white"/>
<circle cx="17.7742" cy="185.769" r="17.7742" fill="white"/>
<circle cx="103.323" cy="185.769" r="17.7742" fill="white"/>
<circle cx="188.871" cy="185.769" r="17.7742" fill="white"/>
<circle cx="274.42" cy="185.769" r="17.7742" fill="white"/>
<circle cx="359.968" cy="185.769" r="17.7742" fill="white"/>
<circle cx="445.516" cy="185.769" r="17.7742" fill="white"/>
<circle cx="530.774" cy="185.769" r="17.7742" fill="white"/>
<circle cx="615.774" cy="185.769" r="17.7742" fill="white"/>
<circle cx="701.323" cy="185.769" r="17.7742" fill="white"/>
<circle cx="786.871" cy="185.769" r="17.7742" fill="white"/>
<circle cx="872.42" cy="185.769" r="17.7742" fill="white"/>
<circle cx="957.968" cy="185.769" r="17.7742" fill="white"/>
<circle cx="59.3226" cy="260.769" r="17.7742" fill="white"/>
<circle cx="144.871" cy="260.769" r="17.7742" fill="white"/>
<circle cx="230.42" cy="260.769" r="17.7742" fill="white"/>
<circle cx="315.968" cy="260.769" r="17.7742" fill="white"/>
<circle cx="401.516" cy="260.769" r="17.7742" fill="white"/>
<circle cx="486.774" cy="260.769" r="17.7742" fill="white"/>
<circle cx="571.774" cy="260.769" r="17.7742" fill="white"/>
<circle cx="657.323" cy="260.769" r="17.7742" fill="white"/>
<circle cx="742.871" cy="260.769" r="17.7742" fill="white"/>
<circle cx="828.42" cy="260.769" r="17.7742" fill="white"/>
<circle cx="913.968" cy="260.769" r="17.7742" fill="white"/>
<circle cx="999.226" cy="260.769" r="17.7742" transform="rotate(-15 999.226 260.769)" fill="white"/>
<circle cx="17.7742" cy="335.769" r="17.7742" fill="white"/>
<circle cx="103.323" cy="335.769" r="17.7742" fill="white"/>
<circle cx="188.871" cy="335.769" r="17.7742" fill="white"/>
<circle cx="274.42" cy="335.769" r="17.7742" fill="white"/>
<circle cx="359.968" cy="335.769" r="17.7742" fill="white"/>
<circle cx="445.516" cy="335.769" r="17.7742" fill="white"/>
<circle cx="530.774" cy="335.769" r="17.7742" fill="white"/>
<circle cx="615.774" cy="335.769" r="17.7742" fill="white"/>
<circle cx="701.323" cy="335.769" r="17.7742" fill="white"/>
<circle cx="786.871" cy="335.769" r="17.7742" fill="white"/>
<circle cx="872.42" cy="335.769" r="17.7742" fill="white"/>
<circle cx="957.968" cy="335.769" r="17.7742" fill="white"/>
<circle cx="59.3225" cy="410.769" r="17.7742" fill="white"/>
<circle cx="144.871" cy="410.769" r="17.7742" fill="white"/>
<circle cx="230.419" cy="410.769" r="17.7742" fill="white"/>
<circle cx="315.968" cy="410.769" r="17.7742" fill="white"/>
<circle cx="401.516" cy="410.769" r="17.7742" fill="white"/>
<circle cx="486.774" cy="410.769" r="17.7742" fill="white"/>
<circle cx="571.774" cy="410.769" r="17.7742" fill="white"/>
<circle cx="657.323" cy="410.769" r="17.7742" fill="white"/>
<circle cx="742.871" cy="410.769" r="17.7742" fill="white"/>
<circle cx="828.42" cy="410.769" r="17.7742" fill="white"/>
<circle cx="913.968" cy="410.769" r="17.7742" fill="white"/>
<circle cx="999.226" cy="410.769" r="17.7742" transform="rotate(-15 999.226 410.769)" fill="white"/>
<circle cx="17.7742" cy="485.769" r="17.7742" fill="white"/>
<circle cx="103.323" cy="485.769" r="17.7742" fill="white"/>
<circle cx="188.871" cy="485.769" r="17.7742" fill="white"/>
<circle cx="274.42" cy="485.769" r="17.7742" fill="white"/>
<circle cx="359.968" cy="485.769" r="17.7742" fill="white"/>
<circle cx="445.516" cy="485.769" r="17.7742" fill="white"/>
<circle cx="530.774" cy="485.769" r="17.7742" fill="white"/>
<circle cx="615.774" cy="485.769" r="17.7742" fill="white"/>
<circle cx="701.323" cy="485.769" r="17.7742" fill="white"/>
<circle cx="786.871" cy="485.769" r="17.7742" fill="white"/>
<circle cx="872.42" cy="485.769" r="17.7742" fill="white"/>
<circle cx="957.968" cy="485.769" r="17.7742" fill="white"/>
<circle cx="59.3225" cy="560.769" r="17.7742" fill="white"/>
<circle cx="144.871" cy="560.769" r="17.7742" fill="white"/>
<circle cx="230.419" cy="560.769" r="17.7742" fill="white"/>
<circle cx="315.968" cy="560.769" r="17.7742" fill="white"/>
<circle cx="401.516" cy="560.769" r="17.7742" fill="white"/>
<circle cx="486.774" cy="560.769" r="17.7742" fill="white"/>
<circle cx="571.774" cy="560.769" r="17.7742" fill="white"/>
<circle cx="657.323" cy="560.769" r="17.7742" fill="white"/>
<circle cx="742.871" cy="560.769" r="17.7742" fill="white"/>
<circle cx="828.42" cy="560.769" r="17.7742" fill="white"/>
<circle cx="913.968" cy="560.769" r="17.7742" fill="white"/>
<circle cx="999.226" cy="560.769" r="17.7742" transform="rotate(-15 999.226 560.769)" fill="white"/>
<circle cx="17.7742" cy="635.769" r="17.7742" fill="white"/>
<circle cx="103.323" cy="635.769" r="17.7742" fill="white"/>
<circle cx="188.871" cy="635.769" r="17.7742" fill="white"/>
<circle cx="274.42" cy="635.769" r="17.7742" fill="white"/>
<circle cx="359.968" cy="635.769" r="17.7742" fill="white"/>
<circle cx="445.516" cy="635.769" r="17.7742" fill="white"/>
<circle cx="530.774" cy="635.769" r="17.7742" fill="white"/>
<circle cx="615.774" cy="635.769" r="17.7742" fill="white"/>
<circle cx="701.323" cy="635.769" r="17.7742" fill="white"/>
<circle cx="786.871" cy="635.769" r="17.7742" fill="white"/>
<circle cx="872.42" cy="635.769" r="17.7742" fill="white"/>
<circle cx="957.968" cy="635.769" r="17.7742" fill="white"/>
<circle cx="59.3226" cy="710.769" r="17.7742" fill="white"/>
<circle cx="144.871" cy="710.769" r="17.7742" fill="white"/>
<circle cx="230.42" cy="710.769" r="17.7742" fill="white"/>
<circle cx="315.968" cy="710.769" r="17.7742" fill="white"/>
<circle cx="401.516" cy="710.769" r="17.7742" fill="white"/>
<circle cx="486.774" cy="710.769" r="17.7742" fill="white"/>
<circle cx="571.774" cy="710.769" r="17.7742" fill="white"/>
<circle cx="657.323" cy="710.769" r="17.7742" fill="white"/>
<circle cx="742.871" cy="710.769" r="17.7742" fill="white"/>
<circle cx="828.42" cy="710.769" r="17.7742" fill="white"/>
<circle cx="913.968" cy="710.769" r="17.7742" fill="white"/>
<circle cx="999.226" cy="710.769" r="17.7742" transform="rotate(-15 999.226 710.769)" fill="white"/>
<circle cx="17.7741" cy="785.769" r="17.7742" fill="white"/>
<circle cx="103.322" cy="785.769" r="17.7742" fill="white"/>
<circle cx="188.871" cy="785.769" r="17.7742" fill="white"/>
<circle cx="274.419" cy="785.769" r="17.7742" fill="white"/>
<circle cx="359.968" cy="785.769" r="17.7742" fill="white"/>
<circle cx="445.516" cy="785.769" r="17.7742" fill="white"/>
<circle cx="530.774" cy="785.769" r="17.7742" fill="white"/>
<circle cx="615.774" cy="785.769" r="17.7742" fill="white"/>
<circle cx="701.323" cy="785.769" r="17.7742" fill="white"/>
<circle cx="786.871" cy="785.769" r="17.7742" fill="white"/>
<circle cx="872.42" cy="785.769" r="17.7742" fill="white"/>
<circle cx="957.968" cy="785.769" r="17.7742" fill="white"/>
<circle cx="59.3226" cy="860.769" r="17.7742" fill="white"/>
<circle cx="144.871" cy="860.769" r="17.7742" fill="white"/>
<circle cx="230.42" cy="860.769" r="17.7742" fill="white"/>
<circle cx="315.968" cy="860.769" r="17.7742" fill="white"/>
<circle cx="401.516" cy="860.769" r="17.7742" fill="white"/>
<circle cx="486.774" cy="860.769" r="17.7742" fill="white"/>
<circle cx="571.774" cy="860.769" r="17.7742" fill="white"/>
<circle cx="657.323" cy="860.769" r="17.7742" fill="white"/>
<circle cx="742.871" cy="860.769" r="17.7742" fill="white"/>
<circle cx="828.42" cy="860.769" r="17.7742" fill="white"/>
<circle cx="913.968" cy="860.769" r="17.7742" fill="white"/>
<circle cx="999.226" cy="860.769" r="17.7742" transform="rotate(-15 999.226 860.769)" fill="white"/>
<circle cx="17.7742" cy="935.769" r="17.7742" fill="white"/>
<circle cx="103.323" cy="935.769" r="17.7742" fill="white"/>
<circle cx="188.871" cy="935.769" r="17.7742" fill="white"/>
<circle cx="274.42" cy="935.769" r="17.7742" fill="white"/>
<circle cx="359.968" cy="935.769" r="17.7742" fill="white"/>
<circle cx="445.516" cy="935.769" r="17.7742" fill="white"/>
<circle cx="530.774" cy="935.769" r="17.7742" fill="white"/>
<circle cx="615.774" cy="935.769" r="17.7742" fill="white"/>
<circle cx="701.323" cy="935.769" r="17.7742" fill="white"/>
<circle cx="786.871" cy="935.769" r="17.7742" fill="white"/>
<circle cx="872.42" cy="935.769" r="17.7742" fill="white"/>
<circle cx="957.968" cy="935.769" r="17.7742" fill="white"/>
<circle cx="59.3225" cy="1010.77" r="17.7742" fill="white"/>
<circle cx="144.871" cy="1010.77" r="17.7742" fill="white"/>
<circle cx="230.419" cy="1010.77" r="17.7742" fill="white"/>
<circle cx="315.968" cy="1010.77" r="17.7742" fill="white"/>
<circle cx="401.516" cy="1010.77" r="17.7742" fill="white"/>
<circle cx="486.774" cy="1010.77" r="17.7742" fill="white"/>
<circle cx="571.774" cy="1010.77" r="17.7742" fill="white"/>
<circle cx="657.323" cy="1010.77" r="17.7742" fill="white"/>
<circle cx="742.871" cy="1010.77" r="17.7742" fill="white"/>
<circle cx="828.42" cy="1010.77" r="17.7742" fill="white"/>
<circle cx="913.968" cy="1010.77" r="17.7742" fill="white"/>
<circle cx="999.226" cy="1010.77" r="17.7742" transform="rotate(-15 999.226 1010.77)" fill="white"/>
<circle cx="17.7742" cy="1085.77" r="17.7742" fill="white"/>
<circle cx="103.323" cy="1085.77" r="17.7742" fill="white"/>
<circle cx="188.871" cy="1085.77" r="17.7742" fill="white"/>
<circle cx="274.42" cy="1085.77" r="17.7742" fill="white"/>
<circle cx="359.968" cy="1085.77" r="17.7742" fill="white"/>
<circle cx="445.516" cy="1085.77" r="17.7742" fill="white"/>
<circle cx="530.774" cy="1085.77" r="17.7742" fill="white"/>
<circle cx="615.774" cy="1085.77" r="17.7742" fill="white"/>
<circle cx="701.323" cy="1085.77" r="17.7742" fill="white"/>
<circle cx="786.871" cy="1085.77" r="17.7742" fill="white"/>
<circle cx="872.42" cy="1085.77" r="17.7742" fill="white"/>
<circle cx="957.968" cy="1085.77" r="17.7742" fill="white"/>
<circle cx="59.3226" cy="1160.77" r="17.7742" fill="white"/>
<circle cx="144.871" cy="1160.77" r="17.7742" fill="white"/>
<circle cx="230.42" cy="1160.77" r="17.7742" fill="white"/>
<circle cx="315.968" cy="1160.77" r="17.7742" fill="white"/>
<circle cx="401.516" cy="1160.77" r="17.7742" fill="white"/>
<circle cx="486.774" cy="1160.77" r="17.7742" fill="white"/>
<circle cx="571.774" cy="1160.77" r="17.7742" fill="white"/>
<circle cx="657.323" cy="1160.77" r="17.7742" fill="white"/>
<circle cx="742.871" cy="1160.77" r="17.7742" fill="white"/>
<circle cx="828.42" cy="1160.77" r="17.7742" fill="white"/>
<circle cx="913.968" cy="1160.77" r="17.7742" fill="white"/>
<circle cx="999.226" cy="1160.77" r="17.7742" transform="rotate(-15 999.226 1160.77)" fill="white"/>
<circle cx="17.7742" cy="1235.77" r="17.7742" fill="white"/>
<circle cx="103.323" cy="1235.77" r="17.7742" fill="white"/>
<circle cx="188.871" cy="1235.77" r="17.7742" fill="white"/>
<circle cx="274.42" cy="1235.77" r="17.7742" fill="white"/>
<circle cx="359.968" cy="1235.77" r="17.7742" fill="white"/>
<circle cx="445.516" cy="1235.77" r="17.7742" fill="white"/>
<circle cx="530.774" cy="1235.77" r="17.7742" fill="white"/>
<circle cx="615.774" cy="1235.77" r="17.7742" fill="white"/>
<circle cx="701.323" cy="1235.77" r="17.7742" fill="white"/>
<circle cx="786.871" cy="1235.77" r="17.7742" fill="white"/>
<circle cx="872.42" cy="1235.77" r="17.7742" fill="white"/>
<circle cx="957.968" cy="1235.77" r="17.7742" fill="white"/>
<circle cx="59.3226" cy="1310.77" r="17.7742" fill="white"/>
<circle cx="144.871" cy="1310.77" r="17.7742" fill="white"/>
<circle cx="230.42" cy="1310.77" r="17.7742" fill="white"/>
<circle cx="315.968" cy="1310.77" r="17.7742" fill="white"/>
<circle cx="401.516" cy="1310.77" r="17.7742" fill="white"/>
<circle cx="486.774" cy="1310.77" r="17.7742" fill="white"/>
<circle cx="571.774" cy="1310.77" r="17.7742" fill="white"/>
<circle cx="657.323" cy="1310.77" r="17.7742" fill="white"/>
<circle cx="742.871" cy="1310.77" r="17.7742" fill="white"/>
<circle cx="828.42" cy="1310.77" r="17.7742" fill="white"/>
<circle cx="913.968" cy="1310.77" r="17.7742" fill="white"/>
<circle cx="999.226" cy="1310.77" r="17.7742" transform="rotate(-15 999.226 1310.77)" fill="white"/>
<circle cx="17.7742" cy="1385.77" r="17.7742" fill="white"/>
<circle cx="103.323" cy="1385.77" r="17.7742" fill="white"/>
<circle cx="188.871" cy="1385.77" r="17.7742" fill="white"/>
<circle cx="274.42" cy="1385.77" r="17.7742" fill="white"/>
<circle cx="359.968" cy="1385.77" r="17.7742" fill="white"/>
<circle cx="445.516" cy="1385.77" r="17.7742" fill="white"/>
<circle cx="530.774" cy="1385.77" r="17.7742" fill="white"/>
<circle cx="615.774" cy="1385.77" r="17.7742" fill="white"/>
<circle cx="701.323" cy="1385.77" r="17.7742" fill="white"/>
<circle cx="786.871" cy="1385.77" r="17.7742" fill="white"/>
<circle cx="872.42" cy="1385.77" r="17.7742" fill="white"/>
<circle cx="957.968" cy="1385.77" r="17.7742" fill="white"/>
<circle cx="59.3225" cy="1460.77" r="17.7742" fill="white"/>
<circle cx="144.871" cy="1460.77" r="17.7742" fill="white"/>
<circle cx="230.419" cy="1460.77" r="17.7742" fill="white"/>
<circle cx="315.968" cy="1460.77" r="17.7742" fill="white"/>
<circle cx="401.516" cy="1460.77" r="17.7742" fill="white"/>
<circle cx="486.774" cy="1460.77" r="17.7742" fill="white"/>
<circle cx="571.774" cy="1460.77" r="17.7742" fill="white"/>
<circle cx="657.323" cy="1460.77" r="17.7742" fill="white"/>
<circle cx="742.871" cy="1460.77" r="17.7742" fill="white"/>
<circle cx="828.42" cy="1460.77" r="17.7742" fill="white"/>
<circle cx="913.968" cy="1460.77" r="17.7742" fill="white"/>
<circle cx="999.226" cy="1460.77" r="17.7742" transform="rotate(-15 999.226 1460.77)" fill="white"/>
</g>
<defs>
<clipPath id="clip0_2_9">
<rect width="1512" height="982" fill="white" transform="translate(982 3.05176e-05) rotate(90)"/>
</clipPath>
</defs>
</svg>
