<?xml version="1.0" encoding="utf-8"?>
<!-- Generator: Adobe Illustrator 24.0.0, SVG Export Plug-In . SVG Version: 6.00 Build 0)  -->
<svg version="1.1" id="Layer_1" xmlns="http://www.w3.org/2000/svg" xmlns:xlink="http://www.w3.org/1999/xlink" x="0px" y="0px"
	 viewBox="0 0 576 576" enable-background="new 0 0 576 576" xml:space="preserve">
<g>
	<path fill="#1C1C1C" d="M523.815,179.87c-1.86-22.644-10.332-42.945-30.179-55.427c-20.212-12.711-44.234-13.079-66.02-4.235
		c-21.698,8.808-39.847,25.125-55.344,42.33c-15.471,17.176-29.432,36.187-41.43,55.951c-6.554,10.796-12.486,21.973-17.29,33.666
		c-5.195,12.646-8.384,25.599-11.336,38.905c-11.08-5.017-23.904-5.549-35.197-0.936c-6.259-28.921-19.224-57.201-34.606-82.336
		c-14.904-24.355-33.756-48.309-55.734-66.68c-22.708-18.981-53.764-31.655-82.765-19.854
		c-27.335,11.123-40.535,38.569-41.932,66.76c-0.65,13.124,0.288,26.272,3.226,39.091c3.585,15.642,10.4,30.186,16.844,44.803
		c3.33,7.554,6.718,15.082,10.099,22.613c1.543,3.436,3.086,6.872,4.629,10.308c0.353,0.786,1.027,1.907,1.25,2.785
		c0.606,2.384,0.684,0.778-0.238,2.333c-1.028,1.736-2.833,3.272-4.078,4.884c-8.292,10.738-13.559,23.487-16.527,36.665
		c-5.624,24.971-3.92,55.461,9.636,77.754c14.611,24.028,41.593,34.339,68.895,31.932c29.848-2.631,57.569-15.481,83.459-29.752
		c3.349-1.846,6.67-3.745,10.003-5.62c1.609-0.906,5.719-4.203,7.205-4c1.335,0.182,3.616,1.984,4.857,2.592
		c1.669,0.817,3.363,1.577,5.082,2.281c3.738,1.53,7.587,2.791,11.511,3.747c13.555,3.304,29.133,3.149,42.112-2.378
		c6.016-2.562,11.448-6.013,15.719-11.046c5.065,6.357,11.82,10.242,18.787,14.185c6.346,3.591,12.785,6.971,19.325,10.191
		c13.193,6.495,26.927,12.114,41.122,15.995c26.604,7.273,57.499,7.203,79.474-11.79c22.778-19.687,28.089-54.712,25.209-83.177
		c-1.448-14.319-6.336-28.186-14.081-40.311c-1.922-3.01-4.056-5.903-6.307-8.674c-1.217-1.497-2.479-2.956-3.773-4.387
		c-0.801-0.885-1.617-1.756-2.437-2.624c-1.303-1.378-1.233-1.056-0.771-2.517c0.426-1.346,2.073-2.973,2.883-4.191
		c1.079-1.623,2.135-3.268,3.182-4.913c2.394-3.764,4.701-7.584,6.91-11.46C512.754,252.516,526.778,215.941,523.815,179.87z"/>
	<g>
		<g>
			<path fill="#D91F28" d="M363.327,428.706c-0.34-0.125-0.699-0.216-1.018-0.381c-6.208-3.217-12.296-6.65-18.343-10.158
				c-1.783-1.035-3.492-2.187-5.103-3.48c-2.023-1.623-3.726-3.542-5.257-5.623c-0.041-0.055-0.041-0.14-0.06-0.211
				c0.295-0.237,0.475-0.545,0.609-0.897c1.123-2.943,1.516-5.991,1.143-9.105c-0.218-1.818-0.51-3.65-1.521-5.255
				c-0.171-1.256,0.044-2.506,0.06-3.758c0.011-0.885,0.024-1.771,0.002-2.655c-0.091-3.624-0.545-7.214-0.96-10.81
				c-0.398-3.448-0.694-6.907-1.061-10.359c-0.367-3.451-0.774-6.898-1.148-10.349c-0.215-1.982-0.391-3.969-0.6-5.952
				c-0.2-1.91-0.421-3.817-0.629-5.726c-0.063-0.572,0.149-0.862,0.675-0.921c1.248-0.139,2.494-0.305,3.745-0.4
				c2.507-0.19,4.995-0.533,7.466-0.979c8.572-1.551,16.427-4.761,23.332-10.153c3.28-2.561,6.218-5.468,8.746-8.765
				c2.833-3.695,4.237-7.906,4.196-12.577c-0.002-0.198-0.108-0.399-0.189-0.589c-0.02-0.047-0.164-0.099-0.194-0.076
				c-0.227,0.177-0.472,0.347-0.653,0.567c-0.985,1.198-1.927,2.434-2.933,3.614c-3.708,4.347-7.823,8.253-12.513,11.54
				c-6.884,4.825-14.454,7.973-22.736,9.423c-2.696,0.472-5.401,0.835-8.14,0.891c-0.369,0.008-0.738,0.007-1.107-0.006
				c-0.375-0.013-0.682-0.304-0.733-0.698c-0.173-1.318-0.353-2.635-0.507-3.955c-0.979-8.365-3.742-16.079-8.43-23.088
				c-1.689-2.526-3.616-4.859-5.788-6.986c-0.369-0.362-0.775-0.694-1.098-1.093c-0.17-0.211-0.277-0.536-0.275-0.809
				c0.004-0.513,0.066-1.034,0.177-1.536c1.112-5.047,2.244-10.09,3.361-15.136c1.936-8.751,4.785-17.211,8.185-25.49
				c4.077-9.927,8.977-19.442,14.443-28.671c0.298-0.503,0.514-1.073,1.024-1.426c0.589,0.3,1.181,0.591,1.765,0.898
				c2.581,1.357,5.334,2.147,8.235,2.294c4.158,0.21,8.029-0.806,11.576-3.007c6.169-3.828,10.078-10.951,9.292-18.808
				c-0.528-5.276-2.867-9.694-6.886-13.191c-0.497-0.432-1-0.858-1.5-1.286c0.215-0.381,0.392-0.791,0.652-1.138
				c5.479-7.331,11.212-14.456,17.334-21.262c0.241-0.268,0.551-0.475,0.828-0.711c0.646,0.981,1.256,1.987,1.943,2.937
				c4.751,6.567,12.999,9.75,21.155,7.561c11.091-2.978,16.005-13.648,14.594-22.096c-0.937-5.611-3.667-10.042-8.234-13.381
				c-0.536-0.392-1.089-0.76-1.748-0.923c6.13-4.704,12.669-8.736,19.689-11.975c1.127-0.52,2.221-1.138,3.467-1.358
				c0.526,0.364,0.634,0.982,0.883,1.503c1.132,2.363,2.644,4.444,4.597,6.185c4.966,4.426,10.792,6.054,17.269,4.781
				c8.72-1.713,14.008-8.45,15.452-15.054c0.11-0.502,0.279-0.992,0.421-1.488c1.341,0.087,2.589,0.565,3.847,0.964
				c7.043,2.232,13.473,5.636,19.188,10.325c7.317,6.004,12.453,13.54,15.538,22.478c1.28,3.706,2.183,7.504,2.737,11.388
				c0.417,2.924,0.703,5.857,0.945,8.801c0.291,3.54,0.325,7.079,0.273,10.622c-0.053,3.619-0.374,7.22-0.756,10.819
				c-0.405,3.819-1.016,7.602-1.731,11.374c-1.35,7.118-3.265,14.086-5.56,20.949c-3.845,11.499-8.558,22.635-14.103,33.419
				c-0.233,0.454-0.387,0.964-0.818,1.294c-0.281-0.761-0.564-1.52-0.842-2.281c-2.252-6.157-8.276-12.357-17.762-12.905
				c-2.688-0.155-5.299,0.337-7.811,1.282c-8.884,3.34-14.49,12.618-12.52,22.605c0.67,3.395,2.166,6.434,4.463,9.033
				c3.925,4.441,8.884,6.7,14.801,6.9c1.867,0.063,3.667-0.342,5.481-0.675c-0.034,0.474-0.355,0.805-0.604,1.163
				c-2.066,2.971-4.143,5.934-6.22,8.898c-0.466,0.665-0.95,1.319-1.41,1.988c-0.377,0.55-0.348,0.831,0.153,1.365
				c1.213,1.293,2.429,2.583,3.659,3.86c2.562,2.66,5.142,5.303,7.553,8.105c2.51,2.915,4.817,5.982,6.93,9.195
				c0.362,0.551,0.772,1.083,0.901,1.752c-0.809-0.077-1.625-0.101-2.422-0.237c-1.546-0.264-3.071-0.18-4.623-0.007
				c-3.069,0.342-5.873,1.365-8.453,3.024c-6.696,4.306-10.538,12.468-8.666,20.93c2.2,9.943,10.893,15.742,19.423,15.664
				c5.421-0.05,10.071-1.941,13.937-5.736c0.735-0.721,1.405-1.509,2.104-2.266c0.063,0.132,0.167,0.26,0.182,0.398
				c0.204,1.982,0.419,3.964,0.585,5.949c0.117,1.398,0.197,2.801,0.234,4.203c0.041,1.549,0.047,3.101,0.01,4.651
				c-0.038,1.624-0.146,3.246-0.22,4.869c-0.401,8.807-1.629,17.486-4.026,25.983c-1.345,4.77-3.028,9.414-5.263,13.848
				c-6.353,12.61-16.222,21.226-29.498,25.96c-4.675,1.667-9.496,2.712-14.417,3.372c-3.086,0.413-6.188,0.384-9.279,0.615
				c-3.092-0.226-6.191-0.223-9.284-0.556c-8.778-0.944-17.278-3.087-25.676-5.709c-0.556-0.174-1.165-0.25-1.622-0.672
				c2.125-4.16,2.772-8.531,1.794-13.105c-2.248-10.518-12.548-17.779-23.732-15.308c-6.745,1.491-11.398,5.609-14.156,11.904
				C363.401,427.961,363.396,428.348,363.327,428.706z M362.053,304.902c10.253,0.107,19.85-8.193,19.881-19.893
				c0.028-10.428-8.182-19.705-19.911-19.919c-11.776,0.236-19.927,9.567-19.883,19.948
				C342.19,296.734,351.804,305.025,362.053,304.902z M481.846,199.233c0.132-10.536-8.602-19.861-19.887-19.882
				c-9.948-0.019-19.674,7.781-19.915,19.919c0.222,11.324,9.052,19.92,19.955,19.87
				C474.287,219.083,482.047,208.929,481.846,199.233z M410.319,256.626c9.746,0.199,19.676-7.63,19.907-19.881
				c-0.268-12.212-10.22-20.072-19.972-19.809c-10.869-0.159-19.878,8.96-19.861,19.873
				C390.411,247.869,399.632,256.826,410.319,256.626z M430.13,366.991c-11.327,0.03-19.855,9.48-19.833,19.96
				c0.021,9.749,7.762,19.831,19.969,19.819c11.2-0.011,19.895-8.989,19.811-19.957C449.984,374.583,439.947,366.864,430.13,366.991
				z M418.802,291.977c-10.574-0.242-19.904,8.592-19.991,19.762c-0.078,9.947,7.823,20.019,20.031,19.97
				c10.86-0.043,19.533-8.6,19.808-19.792C438.439,299.354,428.209,291.763,418.802,291.977z M370.453,379.918
				c10.04,0.26,19.882-8.039,19.902-19.831c0.019-11.595-9.622-19.903-19.884-19.897c-10.476,0.007-19.911,8.469-19.903,19.878
				C350.576,371.87,360.443,380.174,370.453,379.918z"/>
			<path fill="#D91F28" d="M194.047,436.651c-0.293,0.37-0.743,0.473-1.145,0.637c-10.88,4.426-21.973,8.2-33.471,10.683
				c-4.253,0.918-8.548,1.6-12.882,2.068c-5.303,0.573-10.614,0.699-15.915,0.277c-10.273-0.816-19.773-3.962-28.302-9.843
				c-0.421-0.29-0.887-0.54-1.14-1.019c0.108-0.192,0.253-0.374,0.312-0.581c0.766-2.664,0.916-5.396,0.504-8.107
				c-0.914-6.015-3.981-10.72-9.107-13.997c-3.368-2.153-7.091-3.199-11.118-3.032c-0.492-0.666-0.671-1.467-0.932-2.227
				c-1.1-3.201-1.903-6.484-2.591-9.794c-0.748-3.599-1.351-7.225-1.764-10.875c-0.305-2.7-0.605-5.405-0.64-8.131
				c-0.017-1.322-0.125-2.643-0.165-3.966c-0.011-0.359,0.076-0.721,0.118-1.083c0.687,0.032,1.296-0.255,1.918-0.482
				c7.617-2.785,14.393-10.822,12.729-21.889c-0.607-4.042-2.439-7.556-5.295-10.51c-0.978-1.012-2.049-1.913-3.188-2.736
				c0.159-0.565,0.275-1.147,0.484-1.693c3.591-9.371,8.863-17.666,15.919-24.815c0.571-0.578,1.154-1.145,1.721-1.727
				c1.268-1.303,1.513-2.824,0.905-4.5c-0.226-0.624-0.495-1.234-0.767-1.84c-4.745-10.58-9.506-21.153-14.237-31.739
				c-4.369-9.777-8.651-19.592-12.836-29.45c-3.127-7.365-5.493-14.966-7.231-22.769c-0.143-0.642-0.173-1.31-0.255-1.966
				c0.173-0.135,0.379-0.243,0.515-0.409c3.373-4.129,4.932-8.841,4.539-14.177c-0.38-5.171-2.534-9.491-6.258-13.06
				c-0.377-0.361-0.787-0.662-1.26-0.88c0.013-1.18-0.006-2.361,0.048-3.539c0.061-1.328,0.148-2.658,0.292-3.979
				c0.281-2.57,0.538-5.146,0.934-7.699c0.659-4.239,1.648-8.407,3.043-12.471c2.879-8.388,7.366-15.782,13.694-22.015
				c7.521-7.409,16.451-12.168,26.839-14.189c3.65-0.71,7.322-0.934,11.025-0.909c6.424,0.043,12.62,1.308,18.652,3.457
				c8.406,2.994,16.227,7.119,23.546,12.21c5.292,3.681,10.238,7.787,14.848,12.286c14.75,14.396,28.054,30.016,39.645,47.074
				c1.454,2.139,2.86,4.311,4.279,6.474c0.322,0.491,0.694,0.96,0.815,1.556c-1.027,0.955-2.12,1.847-3.064,2.878
				c-4.135,4.513-5.883,9.882-5.113,15.916c0.838,6.564,4.278,11.537,10.007,14.874c2.933,1.708,6.149,2.487,9.522,2.555
				c1.999,0.04,3.969-0.297,5.896-0.848c0.495-0.142,0.993-0.275,1.489-0.413c0.445,0.327,0.562,0.855,0.766,1.316
				c3.841,8.684,7.289,17.521,10.23,26.55c1.07,3.286,2.039,6.605,3.037,9.913c0.125,0.415,0.143,0.863,0.211,1.296
				c-0.603-0.27-1.204-0.544-1.809-0.809c-4.117-1.809-8.377-2.304-12.755-1.227c-10.502,2.583-17.14,12.892-14.801,23.498
				c1.625,7.367,6.193,12.228,13.25,14.786c0.691,0.251,1.416,0.41,2.125,0.612c-0.417,1.873-0.834,3.745-1.252,5.618
				c-0.08,0.359-0.421,0.617-0.826,0.568c-1.539-0.186-3.076-0.391-4.614-0.59c-3.076-0.399-6.158-0.757-9.225-1.211
				c-2.787-0.413-5.6-0.395-8.397-0.641c-0.66-0.058-1.331-0.058-1.993-0.021c-3.618,0.203-7.222,0.509-10.726,1.527
				c-0.275,0.08-0.582,0.052-0.875,0.074c-0.096-0.49-0.494-0.71-0.862-0.946c-4.714-3.028-9.827-3.864-15.268-2.671
				c-11.032,2.419-18.135,14.103-14.446,25.498c2.674,8.26,10.973,15.011,22.031,13.536c6.242-1.156,11.013-4.431,14.216-9.926
				c1.669-2.863,2.473-5.998,2.591-9.29c0.082-2.302-0.309-4.557-1.073-6.739c-0.268-0.765-0.523-1.535-0.784-2.302
				c1.131-0.619,2.402-0.708,3.633-0.873c2.561-0.344,5.139-0.55,7.729-0.43c2.58,0.12,5.157,0.288,7.717,0.653
				c1.461,0.209,2.921,0.421,4.378,0.65c1.773,0.279,3.402,0.96,4.961,1.824c0.434,0.241,0.586,0.642,0.526,1.124
				c-0.145,1.171-0.297,2.342-0.441,3.514c-0.441,3.588-0.876,7.177-1.321,10.765c-0.527,4.247-1.067,8.492-1.591,12.739
				c-0.361,2.929-0.687,5.863-1.061,8.79c-0.355,2.78-0.754,5.555-1.127,8.333c-0.186,1.389-0.393,2.778-0.522,4.173
				c-0.116,1.248-0.189,2.504-0.191,3.756c-0.004,2.807,0.132,5.606,0.587,8.385c0.858,5.245,2.548,10.152,5.771,14.451
				c0.176,0.234,0.32,0.493,0.473,0.743c0.087,0.142-0.003,0.496-0.148,0.599c-0.24,0.17-0.471,0.356-0.726,0.499
				c-4.887,2.753-9.776,5.504-14.67,8.246c-0.382,0.214-0.805,0.355-1.206,0.527c0.139-0.951,0.246-1.905,0.42-2.847
				c0.37-2.002,0.135-3.991-0.265-5.936c-2.212-10.75-12.644-17.879-23.811-15.471c-9.178,1.979-16.784,10.775-15.414,21.925
				c0.72,5.863,3.66,10.512,8.519,13.912C191.669,435.469,192.855,436.066,194.047,436.651z M181.776,288.051
				c10.001,0.178,19.749-7.748,20.038-19.774c-0.145-11.093-8.685-19.871-20.057-20.041c-12.326,0.354-19.77,10.269-19.784,19.838
				C161.957,279.226,171.099,288.107,181.776,288.051z M155.799,391.685c0.253-9.963-7.643-20.052-19.886-20.098
				c-10.898-0.04-19.723,8.588-19.924,19.9c0.261,12.219,10.058,19.807,19.724,19.89
				C146.749,411.472,155.791,402.448,155.799,391.685z M170.365,213.033c10.665-0.032,19.88-8.452,19.914-19.884
				c0.032-10.903-8.607-19.897-19.866-19.915c-11.334-0.018-19.908,9.101-19.917,19.867
				C150.486,204.107,159.328,212.951,170.365,213.033z M144.303,316.351c0.12-10.158-8.167-19.84-19.938-19.82
				c-10.882,0.018-19.86,8.713-19.808,19.965c0.053,11.533,9.371,19.904,19.952,19.824
				C136.254,336.231,144.49,326.552,144.303,316.351z M104.465,186.157c10.785,0.24,19.917-8.843,19.948-19.777
				c0.031-11.07-9.172-19.92-19.824-19.952c-10.731-0.032-19.902,8.835-19.948,19.828C84.596,177.187,93.71,186.34,104.465,186.157z
				 M135.876,241.445c0.211-10.483-8.492-19.899-19.792-19.971c-10.031-0.064-19.872,7.826-19.952,19.827
				c-0.073,10.94,8.566,19.768,19.811,20.013C128.396,261.077,136.047,251.004,135.876,241.445z"/>
			<path fill="#D91F28" d="M318.867,339.383c0.165,1.093,0.368,2.183,0.489,3.281c0.366,3.301,0.691,6.607,1.05,9.909
				c0.367,3.375,0.76,6.747,1.135,10.121c0.172,1.54,0.334,3.082,0.492,4.624c0.353,3.451,0.697,6.903,1.05,10.354
				c0.135,1.322,0.295,2.641,0.42,3.963c0.034,0.363-0.016,0.734-0.028,1.1c-0.632-0.209-1.26-0.423-1.894-0.623
				c-1.341-0.424-2.71-0.755-4.108-0.872c-5.138-0.431-9.81,0.842-13.956,3.943c-6.275,4.695-9.391,13.113-7.236,20.92
				c1.421,5.147,4.377,9.139,8.956,11.911c-0.936,0.63-2.028,0.882-3.082,1.18c-3.343,0.945-6.741,1.618-10.204,1.978
				c-2.06,0.214-4.117,0.354-6.188,0.375c-6.48,0.067-12.798-0.949-18.983-2.832c-4.605-1.402-9.023-3.265-13.255-5.558
				c-1.102-0.597-2.185-1.239-3.231-1.93c-4.324-2.858-7.078-6.842-8.339-11.853c-0.414-1.644-0.783-3.306-0.698-5.024
				c0.654,0.34,1.303,0.686,1.96,1.017c4.832,2.43,9.851,2.919,15.02,1.313c9.333-2.9,15.667-12.302,13.59-22.901
				c-1.22-6.225-4.847-10.824-10.45-13.802c-2.917-1.55-6.081-2.233-9.374-2.204c-1.996,0.018-3.954,0.392-5.858,1.015
				c-0.49,0.161-0.982,0.317-1.472,0.475c0.002-1.62,0.297-3.212,0.465-4.815c0.199-1.9,0.458-3.794,0.692-5.69
				c0.225-1.824,0.448-3.647,0.678-5.47c0.175-1.385,0.366-2.769,0.541-4.154c0.342-2.698,0.665-5.398,1.021-8.094
				c0.455-3.445,1.388-6.757,2.83-9.922c0.028-0.062,0.105-0.101,0.16-0.152c0.358-0.079,0.746-0.095,1.067-0.248
				c0.797-0.381,1.597-0.773,2.336-1.253c5.109-3.316,8.165-7.979,9.118-14.006c0.498-0.669,1.225-1.05,1.9-1.491
				c4.005-2.615,8.363-4.332,13.086-5.113c0.291-0.048,0.583-0.095,0.876-0.122c7.486-0.689,14.529,0.748,21.079,4.459
				c1.15,0.652,2.216,1.455,3.306,2.211c0.233,0.161,0.398,0.42,0.595,0.634c-0.514,0.044-1.027,0.117-1.541,0.128
				c-1.114,0.024-2.199,0.209-3.285,0.45c-10.216,2.265-17.417,12.565-15.017,23.593c2.097,9.635,10.696,15.909,19.704,15.625
				c1.179-0.037,2.375-0.083,3.527-0.308c3.787-0.742,7.09-2.467,9.907-5.115C318.092,340.057,318.484,339.724,318.867,339.383z"/>
		</g>
	</g>
	<path fill="#FFFFFF" d="M475.646,293.538c-1.813,0.333-3.614,0.738-5.481,0.675c-5.917-0.2-10.877-2.459-14.801-6.9
		c-2.297-2.599-3.793-5.637-4.463-9.033c-1.969-9.987,3.636-19.264,12.52-22.605c2.512-0.945,5.123-1.437,7.811-1.282
		c9.486,0.548,15.51,6.748,17.762,12.905c0.278,0.761,0.562,1.52,0.842,2.281c-0.17,0.407-0.312,0.827-0.516,1.215
		c-3.95,7.521-8.3,14.807-12.968,21.903C476.154,293.003,475.884,293.26,475.646,293.538z"/>
	<path fill="#FFFFFF" d="M194.047,436.651c-1.191-0.585-2.377-1.182-3.468-1.945c-4.859-3.4-7.799-8.049-8.519-13.912
		c-1.369-11.15,6.237-19.946,15.414-21.925c11.167-2.408,21.599,4.721,23.811,15.471c0.4,1.945,0.635,3.934,0.265,5.936
		c-0.174,0.942-0.281,1.896-0.42,2.847c-3.5,1.903-6.98,3.836-10.499,5.696c-5.151,2.722-10.395,5.254-15.76,7.53
		C194.603,436.463,194.322,436.551,194.047,436.651z"/>
	<path fill="#FFFFFF" d="M497.911,361.234c-0.7,0.757-1.37,1.545-2.104,2.266c-3.866,3.795-8.517,5.686-13.937,5.736
		c-8.53,0.078-17.224-5.721-19.423-15.664c-1.872-8.462,1.97-16.624,8.666-20.93c2.58-1.659,5.385-2.682,8.453-3.024
		c1.552-0.173,3.077-0.256,4.623,0.007c0.797,0.136,1.612,0.16,2.422,0.237c0.548,0.414,0.824,1.024,1.155,1.59
		c3.352,5.727,5.95,11.777,7.798,18.152c0.88,3.035,1.539,6.118,2.104,9.222C497.811,359.618,497.833,360.431,497.911,361.234z"/>
	<path fill="#FFFFFF" d="M208.36,334.654c0.261,0.767,0.516,1.537,0.784,2.302c0.764,2.182,1.155,4.438,1.073,6.739
		c-0.118,3.292-0.922,6.427-2.591,9.29c-3.203,5.495-7.974,8.77-14.216,9.926c-11.059,1.475-19.357-5.276-22.031-13.536
		c-3.689-11.395,3.414-23.08,14.446-25.498c5.44-1.193,10.553-0.357,15.268,2.671c0.368,0.236,0.766,0.457,0.862,0.946
		c-0.345,0.129-0.685,0.275-1.037,0.385c-5.57,1.744-10.506,4.625-14.974,8.345c-2.56,2.132-4.878,4.507-7.026,7.05
		c-0.377,0.447-0.679,0.958-1.013,1.442c-0.11,0.159-0.103,0.283,0.021,0.346c0.062,0.031,0.144,0.068,0.204,0.051
		c0.496-0.135,0.998-0.258,1.482-0.43c6.596-2.34,13.193-4.679,19.782-7.04c1.664-0.596,3.298-1.278,4.954-1.899
		c0.965-0.362,1.939-0.704,2.924-1.006C207.611,334.633,207.996,334.677,208.36,334.654z"/>
	<path fill="#FFFFFF" d="M318.867,339.383c-0.383,0.341-0.775,0.674-1.149,1.026c-2.816,2.648-6.12,4.373-9.907,5.115
		c-1.152,0.226-2.348,0.271-3.527,0.308c-9.008,0.284-17.607-5.989-19.704-15.625c-2.4-11.028,4.8-21.328,15.017-23.593
		c1.087-0.241,2.171-0.426,3.285-0.45c0.514-0.011,1.028-0.083,1.541-0.128c0.367,0.24,0.769,0.439,1.096,0.725
		c2.402,2.101,4.448,4.513,6.16,7.203c3.126,4.91,5.246,10.206,6.047,15.993c0.414,2.992,0.782,5.989,1.166,8.985
		C318.911,339.086,318.877,339.236,318.867,339.383z"/>
	<path fill="#FFFFFF" d="M244.674,359.264c0.491-0.158,0.982-0.314,1.472-0.475c1.903-0.624,3.861-0.998,5.858-1.015
		c3.293-0.029,6.458,0.654,9.374,2.204c5.603,2.978,9.23,7.577,10.45,13.802c2.077,10.599-4.257,20.001-13.59,22.901
		c-5.169,1.606-10.188,1.117-15.02-1.313c-0.657-0.331-1.306-0.677-1.96-1.017c-0.052-0.139-0.136-0.274-0.149-0.416
		c-0.227-2.499-0.331-4.996,0.026-7.497c0.396-2.772,0.752-5.549,1.115-8.325c0.411-3.142,0.819-6.284,1.212-9.428
		c0.356-2.852,0.687-5.707,1.035-8.56C244.532,359.835,244.614,359.551,244.674,359.264z"/>
	<path fill="#FFFFFF" d="M408.5,144.553c0.659,0.164,1.212,0.531,1.748,0.923c4.566,3.338,7.297,7.77,8.234,13.381
		c1.411,8.448-3.503,19.118-14.594,22.096c-8.156,2.19-16.404-0.994-21.155-7.561c-0.687-0.95-1.297-1.957-1.943-2.937
		c0.203-0.301,0.371-0.635,0.615-0.899c8.12-8.778,16.722-17.041,26.19-24.372C407.885,144.959,408.197,144.762,408.5,144.553z"/>
	<path fill="#FFFFFF" d="M239.861,322.17c-0.709-0.202-1.434-0.361-2.125-0.612c-7.057-2.558-11.625-7.419-13.25-14.786
		c-2.339-10.606,4.299-20.915,14.801-23.498c4.378-1.077,8.638-0.582,12.755,1.227c0.605,0.266,1.206,0.539,1.809,0.809
		c0.126,0.262,0.294,0.512,0.37,0.787c0.758,2.764,1.548,5.521,2.06,8.346c0.091,0.506,0.196,1.015,0.221,1.526
		c0.119,2.494,0.18,2.021-1.405,3.372c-6.219,5.304-10.891,11.724-13.94,19.313C240.691,319.813,240.291,320.997,239.861,322.17z"/>
	<path fill="#FFFFFF" d="M305.239,418.014c-4.579-2.772-7.535-6.764-8.956-11.911c-2.155-7.807,0.961-16.224,7.236-20.92
		c4.145-3.102,8.817-4.375,13.956-3.943c1.398,0.117,2.768,0.448,4.108,0.872c0.633,0.2,1.262,0.414,1.894,0.623
		c0.227,0.396,0.292,0.832,0.322,1.276c0.262,3.908,0.311,7.81-0.382,11.686c-0.587,3.281-1.55,6.441-3.101,9.405
		c-2.13,4.072-5.112,7.368-8.969,9.87C309.426,416.218,307.427,417.306,305.239,418.014z"/>
	<path fill="#FFFFFF" d="M363.327,428.706c0.069-0.358,0.074-0.745,0.217-1.071c2.758-6.294,7.411-10.413,14.156-11.904
		c11.184-2.472,21.484,4.79,23.732,15.308c0.978,4.574,0.33,8.945-1.794,13.105c-2.012-0.469-3.931-1.228-5.868-1.921
		c-10.345-3.699-20.326-8.231-30.087-13.259C363.554,428.898,363.445,428.793,363.327,428.706z"/>
	<path fill="#FFFFFF" d="M361.975,193.566c0.5,0.429,1.003,0.854,1.5,1.286c4.018,3.497,6.358,7.915,6.886,13.191
		c0.786,7.857-3.123,14.98-9.292,18.808c-3.547,2.201-7.418,3.218-11.576,3.007c-2.901-0.147-5.655-0.937-8.235-2.294
		c-0.584-0.307-1.176-0.599-1.765-0.898c0.118-0.763,0.626-1.331,1.005-1.954c3.305-5.425,6.752-10.758,10.404-15.955
		c3.27-4.652,6.595-9.266,9.908-13.887C361.148,194.398,361.42,193.851,361.975,193.566z"/>
	<path fill="#FFFFFF" d="M239.607,246.235c-0.496,0.137-0.994,0.271-1.489,0.413c-1.927,0.551-3.897,0.888-5.896,0.848
		c-3.372-0.068-6.589-0.847-9.522-2.555c-5.729-3.336-9.169-8.31-10.007-14.874c-0.77-6.034,0.977-11.403,5.113-15.916
		c0.944-1.03,2.038-1.923,3.064-2.878c0.561,0.404,0.827,1.024,1.176,1.583c5.311,8.506,10.122,17.287,14.465,26.325
		c0.957,1.991,1.866,4.005,2.808,6.003C239.479,245.522,239.616,245.855,239.607,246.235z"/>
	<path fill="#FFFFFF" d="M470.278,127.148c-0.142,0.496-0.311,0.985-0.421,1.488c-1.444,6.604-6.732,13.34-15.452,15.054
		c-6.477,1.273-12.304-0.355-17.269-4.781c-1.953-1.741-3.465-3.822-4.597-6.185c-0.249-0.521-0.358-1.139-0.883-1.503
		c0.385-0.216,0.75-0.477,1.156-0.639c5.016-2.004,10.187-3.477,15.519-4.339c4.908-0.794,9.855-0.881,14.8-0.457
		c1.98,0.17,3.94,0.578,5.904,0.912C469.462,126.771,469.864,126.994,470.278,127.148z"/>
	<path fill="#FFFFFF" d="M81.973,342.043c1.139,0.823,2.21,1.724,3.188,2.736c2.856,2.955,4.688,6.468,5.295,10.51
		c1.663,11.068-5.112,19.104-12.729,21.889c-0.621,0.227-1.231,0.514-1.918,0.482c-0.21-0.574-0.098-1.168-0.084-1.75
		c0.094-3.827,0.235-7.654,0.732-11.454c0.707-5.403,1.726-10.746,3.289-15.973c0.505-1.69,1.038-3.372,1.588-5.048
		C81.492,342.953,81.757,342.506,81.973,342.043z"/>
	<path fill="#FFFFFF" d="M81.782,413.736c4.027-0.167,7.75,0.88,11.118,3.032c5.127,3.277,8.193,7.982,9.107,13.997
		c0.412,2.711,0.263,5.443-0.504,8.107c-0.059,0.207-0.204,0.389-0.312,0.581c-0.199-0.101-0.414-0.175-0.588-0.305
		c-8.637-6.436-14.782-14.754-18.674-24.768C81.851,414.177,81.83,413.951,81.782,413.736z"/>
	<path fill="#FFFFFF" d="M63.211,193.018c0.473,0.217,0.883,0.518,1.26,0.88c3.724,3.57,5.878,7.89,6.258,13.06
		c0.392,5.336-1.166,10.048-4.539,14.177c-0.135,0.166-0.341,0.274-0.515,0.409c-0.249-0.298-0.282-0.668-0.351-1.03
		c-0.714-3.768-1.274-7.56-1.641-11.375c-0.502-5.215-0.727-10.445-0.553-15.686C63.136,193.307,63.183,193.163,63.211,193.018z"/>
	<path fill="#FFFFFF" d="M263.583,305.459c-0.953,6.027-4.01,10.691-9.118,14.006c-0.739,0.48-1.54,0.872-2.336,1.253
		c-0.321,0.154-0.709,0.169-1.067,0.248c0.06-0.21,0.092-0.435,0.185-0.63c2.705-5.651,6.476-10.457,11.404-14.34
		C262.929,305.776,263.271,305.636,263.583,305.459z"/>
	<path fill="#FFFFFF" d="M333.776,393.595c1.011,1.605,1.303,3.437,1.521,5.255c0.373,3.114-0.02,6.162-1.143,9.105
		c-0.134,0.353-0.314,0.661-0.609,0.897c-0.245-0.27-0.509-0.524-0.73-0.812c-0.578-0.753-1.137-1.52-1.703-2.281
		c-0.04-0.982,0.477-1.813,0.745-2.71c0.819-2.742,1.38-5.535,1.754-8.369C333.659,394.318,333.721,393.957,333.776,393.595z"/>
	<path fill="#FFFFFF" d="M362.053,304.902c-10.25,0.124-19.863-8.168-19.913-19.863c-0.044-10.381,8.107-19.712,19.883-19.948
		c11.729,0.213,19.939,9.491,19.911,19.919C381.903,296.709,372.307,305.008,362.053,304.902z"/>
	<path fill="#FFFFFF" d="M481.846,199.233c0.201,9.696-7.558,19.85-19.848,19.907c-10.902,0.05-19.733-8.546-19.955-19.87
		c0.241-12.138,9.968-19.938,19.915-19.919C473.243,179.372,481.977,188.698,481.846,199.233z"/>
	<path fill="#FFFFFF" d="M410.319,256.626c-10.687,0.2-19.908-8.757-19.926-19.816c-0.018-10.913,8.991-20.032,19.861-19.873
		c9.753-0.264,19.704,7.596,19.972,19.809C429.994,248.996,420.065,256.824,410.319,256.626z"/>
	<path fill="#FFFFFF" d="M430.13,366.991c9.817-0.126,19.854,7.592,19.947,19.821c0.084,10.969-8.611,19.946-19.811,19.957
		c-12.207,0.012-19.948-10.07-19.969-19.819C410.275,376.47,418.803,367.021,430.13,366.991z"/>
	<path fill="#FFFFFF" d="M418.802,291.977c9.407-0.214,19.637,7.378,19.848,19.941c-0.275,11.192-8.948,19.748-19.808,19.792
		c-12.208,0.049-20.109-10.023-20.031-19.97C398.898,300.568,408.228,291.735,418.802,291.977z"/>
	<path fill="#FFFFFF" d="M370.453,379.918c-10.01,0.256-19.877-8.048-19.885-19.85c-0.008-11.409,9.427-19.872,19.903-19.878
		c10.262-0.007,19.903,8.302,19.884,19.897C390.335,371.879,380.493,380.178,370.453,379.918z"/>
	<path fill="#FFFFFF" d="M181.776,288.051c-10.677,0.056-19.819-8.826-19.803-19.977c0.013-9.569,7.457-19.484,19.784-19.838
		c11.372,0.17,19.912,8.948,20.057,20.041C201.525,280.304,191.778,288.23,181.776,288.051z"/>
	<path fill="#FFFFFF" d="M155.799,391.685c-0.008,10.763-9.051,19.787-20.086,19.693c-9.666-0.083-19.463-7.671-19.724-19.89
		c0.201-11.313,9.026-19.941,19.924-19.9C148.156,371.632,156.052,381.722,155.799,391.685z"/>
	<path fill="#FFFFFF" d="M170.365,213.033c-11.037-0.081-19.879-8.925-19.87-19.932c0.009-10.765,8.584-19.885,19.917-19.867
		c11.259,0.018,19.898,9.012,19.866,19.915C190.245,204.581,181.03,213,170.365,213.033z"/>
	<path fill="#FFFFFF" d="M144.303,316.351c0.188,10.201-8.049,19.88-19.794,19.969c-10.581,0.08-19.899-8.291-19.952-19.824
		c-0.052-11.253,8.926-19.947,19.808-19.965C136.135,296.512,144.423,306.193,144.303,316.351z"/>
	<path fill="#FFFFFF" d="M104.465,186.157c-10.756,0.183-19.87-8.971-19.824-19.901c0.046-10.993,9.217-19.861,19.948-19.828
		c10.652,0.032,19.855,8.882,19.824,19.952C124.383,177.314,115.25,186.397,104.465,186.157z"/>
	<path fill="#FFFFFF" d="M135.876,241.445c0.171,9.559-7.48,19.632-19.933,19.869c-11.245-0.245-19.883-9.073-19.811-20.013
		c0.08-12.001,9.921-19.892,19.952-19.827C127.384,221.546,136.088,230.961,135.876,241.445z"/>
</g>
</svg>
